<svg width="51" height="45" viewBox="0 0 51 45" fill="none" xmlns="http://www.w3.org/2000/svg">
<path d="M25.5092 0.669922C14.1112 0.669922 4.37731 9.70751 0.433594 22.4648C4.37731 35.222 14.1112 44.2596 25.5092 44.2596C36.9072 44.2596 46.6411 35.222 50.5849 22.4648C46.6411 9.70751 36.9072 0.669922 25.5092 0.669922ZM25.5092 36.9946C19.2175 36.9946 14.1112 30.4853 14.1112 22.4648C14.1112 14.4443 19.2175 7.93487 25.5092 7.93487C31.8009 7.93487 36.9072 14.4443 36.9072 22.4648C36.9072 30.4853 31.8009 36.9946 25.5092 36.9946ZM25.5092 13.7468C21.7251 13.7468 18.6704 17.6408 18.6704 22.4648C18.6704 27.2887 21.7251 31.1827 25.5092 31.1827C29.2934 31.1827 32.348 27.2887 32.348 22.4648C32.348 17.6408 29.2934 13.7468 25.5092 13.7468Z" fill="#40513B"/>
</svg>
